<mxfile host="Electron" modified="2023-06-13T00:04:32.285Z" agent="Mozilla/5.0 (Macintosh; Intel Mac OS X 10_15_7) AppleWebKit/537.36 (KHTML, like Gecko) draw.io/21.3.7 Chrome/112.0.5615.204 Electron/24.5.0 Safari/537.36" etag="ak3nBaEaZUhO3_9e8VTl" version="21.3.7" type="device">
  <diagram name="Page-1" id="eQxUJyYk7QfhMLjCumPl">
    <mxGraphModel dx="1964" dy="894" grid="1" gridSize="10" guides="1" tooltips="1" connect="1" arrows="1" fold="1" page="1" pageScale="1" pageWidth="850" pageHeight="1100" math="1" shadow="0">
      <root>
        <mxCell id="0" />
        <mxCell id="1" parent="0" />
        <mxCell id="Ygb_xh4oGPSBgwH2xk3q-7" value="" style="group" vertex="1" connectable="0" parent="1">
          <mxGeometry x="45" y="280" width="120" height="80" as="geometry" />
        </mxCell>
        <mxCell id="Ygb_xh4oGPSBgwH2xk3q-8" value="" style="rounded=1;whiteSpace=wrap;html=1;arcSize=5;fontFamily=SF Mono;" vertex="1" parent="Ygb_xh4oGPSBgwH2xk3q-7">
          <mxGeometry width="120" height="80" as="geometry" />
        </mxCell>
        <mxCell id="Ygb_xh4oGPSBgwH2xk3q-9" value="ref_count: 1" style="rounded=0;whiteSpace=wrap;html=1;fontFamily=SF Mono;" vertex="1" parent="Ygb_xh4oGPSBgwH2xk3q-7">
          <mxGeometry y="10" width="120" height="30" as="geometry" />
        </mxCell>
        <mxCell id="Ygb_xh4oGPSBgwH2xk3q-10" value="a" style="text;html=1;strokeColor=none;fillColor=none;align=center;verticalAlign=middle;whiteSpace=wrap;rounded=0;fontFamily=SF Mono;" vertex="1" parent="1">
          <mxGeometry x="75" y="170" width="60" height="30" as="geometry" />
        </mxCell>
        <mxCell id="Ygb_xh4oGPSBgwH2xk3q-12" value="$$obj1$$" style="text;html=1;strokeColor=none;fillColor=none;align=center;verticalAlign=middle;whiteSpace=wrap;rounded=0;" vertex="1" parent="1">
          <mxGeometry x="-30" y="300" width="60" height="30" as="geometry" />
        </mxCell>
        <mxCell id="Ygb_xh4oGPSBgwH2xk3q-13" value="" style="group" vertex="1" connectable="0" parent="1">
          <mxGeometry x="315" y="280" width="120" height="80" as="geometry" />
        </mxCell>
        <mxCell id="Ygb_xh4oGPSBgwH2xk3q-14" value="" style="rounded=1;whiteSpace=wrap;html=1;arcSize=5;fontFamily=SF Mono;" vertex="1" parent="Ygb_xh4oGPSBgwH2xk3q-13">
          <mxGeometry width="120" height="80" as="geometry" />
        </mxCell>
        <mxCell id="Ygb_xh4oGPSBgwH2xk3q-15" value="ref_count: 1" style="rounded=0;whiteSpace=wrap;html=1;fontFamily=SF Mono;" vertex="1" parent="Ygb_xh4oGPSBgwH2xk3q-13">
          <mxGeometry y="10" width="120" height="30" as="geometry" />
        </mxCell>
        <mxCell id="Ygb_xh4oGPSBgwH2xk3q-16" value="b" style="text;html=1;strokeColor=none;fillColor=none;align=center;verticalAlign=middle;whiteSpace=wrap;rounded=0;fontFamily=SF Mono;" vertex="1" parent="1">
          <mxGeometry x="345" y="170" width="60" height="30" as="geometry" />
        </mxCell>
        <mxCell id="Ygb_xh4oGPSBgwH2xk3q-18" value="$$obj2$$" style="text;html=1;strokeColor=none;fillColor=none;align=center;verticalAlign=middle;whiteSpace=wrap;rounded=0;" vertex="1" parent="1">
          <mxGeometry x="240" y="300" width="60" height="30" as="geometry" />
        </mxCell>
        <mxCell id="Ygb_xh4oGPSBgwH2xk3q-19" value="" style="group" vertex="1" connectable="0" parent="1">
          <mxGeometry x="595" y="280" width="120" height="80" as="geometry" />
        </mxCell>
        <mxCell id="Ygb_xh4oGPSBgwH2xk3q-20" value="" style="rounded=1;whiteSpace=wrap;html=1;arcSize=5;fontFamily=SF Mono;" vertex="1" parent="Ygb_xh4oGPSBgwH2xk3q-19">
          <mxGeometry width="120" height="80" as="geometry" />
        </mxCell>
        <mxCell id="Ygb_xh4oGPSBgwH2xk3q-21" value="ref_count: 1" style="rounded=0;whiteSpace=wrap;html=1;fontFamily=SF Mono;" vertex="1" parent="Ygb_xh4oGPSBgwH2xk3q-19">
          <mxGeometry y="10" width="120" height="30" as="geometry" />
        </mxCell>
        <mxCell id="Ygb_xh4oGPSBgwH2xk3q-22" value="c" style="text;html=1;strokeColor=none;fillColor=none;align=center;verticalAlign=middle;whiteSpace=wrap;rounded=0;fontFamily=SF Mono;" vertex="1" parent="1">
          <mxGeometry x="625" y="170" width="60" height="30" as="geometry" />
        </mxCell>
        <mxCell id="Ygb_xh4oGPSBgwH2xk3q-24" value="$$obj3$$" style="text;html=1;strokeColor=none;fillColor=none;align=center;verticalAlign=middle;whiteSpace=wrap;rounded=0;" vertex="1" parent="1">
          <mxGeometry x="520" y="300" width="60" height="30" as="geometry" />
        </mxCell>
        <mxCell id="Ygb_xh4oGPSBgwH2xk3q-25" value="" style="endArrow=classic;html=1;rounded=0;exitX=1;exitY=0.75;exitDx=0;exitDy=0;entryX=0;entryY=0.75;entryDx=0;entryDy=0;" edge="1" parent="1" source="Ygb_xh4oGPSBgwH2xk3q-8" target="Ygb_xh4oGPSBgwH2xk3q-14">
          <mxGeometry width="50" height="50" relative="1" as="geometry">
            <mxPoint x="500" y="480" as="sourcePoint" />
            <mxPoint x="550" y="430" as="targetPoint" />
          </mxGeometry>
        </mxCell>
        <mxCell id="Ygb_xh4oGPSBgwH2xk3q-26" value="" style="endArrow=classic;html=1;rounded=0;exitX=1;exitY=0.75;exitDx=0;exitDy=0;entryX=0;entryY=0.75;entryDx=0;entryDy=0;" edge="1" parent="1" source="Ygb_xh4oGPSBgwH2xk3q-14" target="Ygb_xh4oGPSBgwH2xk3q-20">
          <mxGeometry width="50" height="50" relative="1" as="geometry">
            <mxPoint x="500" y="480" as="sourcePoint" />
            <mxPoint x="550" y="430" as="targetPoint" />
          </mxGeometry>
        </mxCell>
        <mxCell id="Ygb_xh4oGPSBgwH2xk3q-27" value="" style="endArrow=classic;html=1;rounded=0;exitX=1;exitY=0.75;exitDx=0;exitDy=0;entryX=0;entryY=0.75;entryDx=0;entryDy=0;" edge="1" parent="1" source="Ygb_xh4oGPSBgwH2xk3q-20" target="Ygb_xh4oGPSBgwH2xk3q-8">
          <mxGeometry width="50" height="50" relative="1" as="geometry">
            <mxPoint x="500" y="480" as="sourcePoint" />
            <mxPoint x="550" y="430" as="targetPoint" />
            <Array as="points">
              <mxPoint x="780" y="340" />
              <mxPoint x="780" y="420" />
              <mxPoint x="-30" y="420" />
              <mxPoint x="-30" y="340" />
            </Array>
          </mxGeometry>
        </mxCell>
        <mxCell id="Ygb_xh4oGPSBgwH2xk3q-28" value="&lt;font style=&quot;font-size: 14px;&quot;&gt;×&lt;/font&gt;" style="endArrow=classic;html=1;rounded=0;exitX=0.5;exitY=1;exitDx=0;exitDy=0;entryX=0.5;entryY=0;entryDx=0;entryDy=0;fontColor=#FF0000;dashed=1;" edge="1" parent="1">
          <mxGeometry x="-0.25" width="50" height="50" relative="1" as="geometry">
            <mxPoint x="654.5" y="200" as="sourcePoint" />
            <mxPoint x="654.5" y="280" as="targetPoint" />
            <mxPoint as="offset" />
          </mxGeometry>
        </mxCell>
        <mxCell id="Ygb_xh4oGPSBgwH2xk3q-29" value="&lt;font style=&quot;font-size: 14px;&quot;&gt;×&lt;/font&gt;" style="endArrow=classic;html=1;rounded=0;exitX=0.5;exitY=1;exitDx=0;exitDy=0;entryX=0.5;entryY=0;entryDx=0;entryDy=0;fontColor=#FF0000;dashed=1;" edge="1" parent="1">
          <mxGeometry x="-0.25" width="50" height="50" relative="1" as="geometry">
            <mxPoint x="374.5" y="200" as="sourcePoint" />
            <mxPoint x="374.5" y="280" as="targetPoint" />
            <mxPoint as="offset" />
          </mxGeometry>
        </mxCell>
        <mxCell id="Ygb_xh4oGPSBgwH2xk3q-30" value="&lt;font style=&quot;font-size: 14px;&quot;&gt;×&lt;/font&gt;" style="endArrow=classic;html=1;rounded=0;exitX=0.5;exitY=1;exitDx=0;exitDy=0;entryX=0.5;entryY=0;entryDx=0;entryDy=0;fontColor=#FF0000;dashed=1;" edge="1" parent="1">
          <mxGeometry x="-0.25" width="50" height="50" relative="1" as="geometry">
            <mxPoint x="104.5" y="200" as="sourcePoint" />
            <mxPoint x="104.5" y="280" as="targetPoint" />
            <mxPoint as="offset" />
          </mxGeometry>
        </mxCell>
      </root>
    </mxGraphModel>
  </diagram>
</mxfile>
